<?xml version="1.0" encoding="utf-8"?>
<!-- Generator: Adobe Illustrator 18.1.0, SVG Export Plug-In . SVG Version: 6.00 Build 0)  -->
<!DOCTYPE svg PUBLIC "-//W3C//DTD SVG 1.1//EN" "http://www.w3.org/Graphics/SVG/1.1/DTD/svg11.dtd">
<svg version="1.1" id="Layer_1" xmlns="http://www.w3.org/2000/svg" xmlns:xlink="http://www.w3.org/1999/xlink" x="0px" y="0px"
	 viewBox="-43 45 200 200" enable-background="new -43 45 200 200" xml:space="preserve">
<g>
	<circle fill="#CC3432" cx="57" cy="145" r="91.6"/>
	<g>
		<path fill="#FFFFFF" d="M-1.3,163.3V163c0-15.4,11.7-22.5,28.5-22.5c7.1,0,12.3,1.2,17.3,2.9v-1.2c0-8.3-5.1-12.9-15.2-12.9
			c-7.6,0-13.1,1.5-19.5,3.8l-5-15.3c7.8-3.4,15.4-5.7,27.4-5.7c10.9,0,18.9,2.9,23.9,7.9c5.3,5.3,7.6,13.1,7.6,22.5v41H44.4v-7.6
			c-4.9,5.4-11.6,9-21.4,9C9.7,184.9-1.3,177.3-1.3,163.3z M44.8,158.7v-3.6c-3.4-1.6-7.9-2.6-12.8-2.6c-8.6,0-13.8,3.4-13.8,9.8
			v0.3c0,5.4,4.5,8.6,10.9,8.6C38.4,171.1,44.8,165.9,44.8,158.7z"/>
		<path fill="#FFFFFF" d="M53.5,174.2l8.6-13.2c7.6,5.5,15.7,8.4,22.3,8.4c5.8,0,8.4-2.1,8.4-5.3V164c0-4.4-6.9-5.8-14.6-8.2
			c-9.9-2.9-21.1-7.5-21.1-21.2v-0.3c0-14.4,11.6-22.4,25.8-22.4c9,0,18.7,3,26.4,8.2l-7.6,13.8c-7-4.1-14-6.6-19.1-6.6
			c-4.9,0-7.4,2.1-7.4,4.9v0.3c0,4,6.7,5.8,14.4,8.4c9.9,3.3,21.4,8,21.4,21v0.3c0,15.7-11.7,22.8-27,22.8
			C73.9,184.9,62.9,181.6,53.5,174.2z"/>
	</g>
</g>
</svg>
